<svg width="400" height="400" viewBox="0 0 400 400" fill="none" xmlns="http://www.w3.org/2000/svg">
<g opacity="0.85">
<path opacity="0.8" fill-rule="evenodd" clip-rule="evenodd" d="M200 400C310.457 400 400 310.457 400 200C400 89.5431 310.457 0 200 0C89.5431 0 0 89.5431 0 200C0 310.457 89.5431 400 200 400ZM361.57 200C361.57 289.233 289.233 361.57 200 361.57C110.767 361.57 38.4301 289.233 38.4301 200C38.4301 110.767 110.767 38.4301 200 38.4301C289.233 38.4301 361.57 110.767 361.57 200ZM365.517 200C365.517 291.413 291.413 365.517 200 365.517C108.587 365.517 34.4828 291.413 34.4828 200C34.4828 108.587 108.587 34.4828 200 34.4828C291.413 34.4828 365.517 108.587 365.517 200Z" fill="#FEEAAB"/>
</g>
<path d="M111.294 137.827V162.523C111.294 165.995 112.134 168.571 113.814 170.251C115.531 171.931 117.902 172.771 120.926 172.771C123.913 172.771 126.246 171.931 127.926 170.251C129.643 168.571 130.502 165.995 130.502 162.523V137.827H135.598V162.467C135.598 165.715 134.945 168.459 133.638 170.699C132.331 172.902 130.558 174.545 128.318 175.627C126.115 176.71 123.633 177.251 120.87 177.251C118.107 177.251 115.606 176.71 113.366 175.627C111.163 174.545 109.409 172.902 108.102 170.699C106.833 168.459 106.198 165.715 106.198 162.467V137.827H111.294Z" fill="#111111"/>
<path d="M159.051 145.611C162.785 145.611 165.809 146.75 168.123 149.027C170.438 151.267 171.595 154.515 171.595 158.771V176.859H166.555V159.499C166.555 156.438 165.79 154.105 164.259 152.499C162.729 150.857 160.638 150.035 157.987 150.035C155.299 150.035 153.153 150.875 151.547 152.555C149.979 154.235 149.195 156.681 149.195 159.891V176.859H144.099V146.171H149.195V150.539C150.203 148.971 151.566 147.758 153.283 146.899C155.038 146.041 156.961 145.611 159.051 145.611Z" fill="#111111"/>
<path d="M182.552 141.187C181.581 141.187 180.76 140.851 180.088 140.179C179.416 139.507 179.08 138.686 179.08 137.715C179.08 136.745 179.416 135.923 180.088 135.251C180.76 134.579 181.581 134.243 182.552 134.243C183.485 134.243 184.269 134.579 184.904 135.251C185.576 135.923 185.912 136.745 185.912 137.715C185.912 138.686 185.576 139.507 184.904 140.179C184.269 140.851 183.485 141.187 182.552 141.187ZM185.016 146.171V176.859H179.92V146.171H185.016Z" fill="#111111"/>
<path d="M191.797 161.403C191.797 158.267 192.431 155.523 193.701 153.171C194.97 150.782 196.706 148.934 198.909 147.627C201.149 146.321 203.65 145.667 206.413 145.667C209.063 145.667 211.378 146.265 213.357 147.459C215.373 148.617 216.847 150.054 217.781 151.771V146.171H222.933V191.419H217.781V171.203C216.81 172.921 215.317 174.377 213.301 175.571C211.285 176.766 208.933 177.363 206.245 177.363C203.557 177.363 201.111 176.691 198.909 175.347C196.706 174.003 194.97 172.118 193.701 169.691C192.431 167.265 191.797 164.502 191.797 161.403ZM217.781 161.459C217.781 159.145 217.314 157.129 216.381 155.411C215.447 153.694 214.178 152.387 212.573 151.491C211.005 150.558 209.269 150.091 207.365 150.091C205.461 150.091 203.725 150.539 202.157 151.435C200.589 152.331 199.338 153.638 198.405 155.355C197.471 157.073 197.005 159.089 197.005 161.403C197.005 163.755 197.471 165.809 198.405 167.563C199.338 169.281 200.589 170.606 202.157 171.539C203.725 172.435 205.461 172.883 207.365 172.883C209.269 172.883 211.005 172.435 212.573 171.539C214.178 170.606 215.447 169.281 216.381 167.563C217.314 165.809 217.781 163.774 217.781 161.459Z" fill="#111111"/>
<path d="M258.76 146.171V176.859H253.665V172.323C252.694 173.891 251.331 175.123 249.577 176.019C247.859 176.878 245.955 177.307 243.865 177.307C241.475 177.307 239.329 176.822 237.425 175.851C235.521 174.843 234.009 173.35 232.889 171.371C231.806 169.393 231.265 166.985 231.265 164.147V146.171H236.305V163.475C236.305 166.499 237.07 168.833 238.601 170.475C240.131 172.081 242.222 172.883 244.873 172.883C247.598 172.883 249.745 172.043 251.312 170.363C252.881 168.683 253.665 166.238 253.665 163.027V146.171H258.76Z" fill="#111111"/>
<path d="M295.365 160.339C295.365 161.31 295.309 162.337 295.197 163.419H270.669C270.855 166.443 271.882 168.814 273.749 170.531C275.653 172.211 277.949 173.051 280.637 173.051C282.839 173.051 284.669 172.547 286.125 171.539C287.618 170.494 288.663 169.113 289.261 167.395H294.749C293.927 170.345 292.285 172.753 289.821 174.619C287.357 176.449 284.295 177.363 280.637 177.363C277.725 177.363 275.111 176.71 272.797 175.403C270.519 174.097 268.727 172.249 267.421 169.859C266.114 167.433 265.461 164.633 265.461 161.459C265.461 158.286 266.095 155.505 267.365 153.115C268.634 150.726 270.407 148.897 272.685 147.627C274.999 146.321 277.65 145.667 280.637 145.667C283.549 145.667 286.125 146.302 288.365 147.571C290.605 148.841 292.322 150.595 293.517 152.835C294.749 155.038 295.365 157.539 295.365 160.339ZM290.101 159.275C290.101 157.334 289.671 155.673 288.813 154.291C287.954 152.873 286.778 151.809 285.285 151.099C283.829 150.353 282.205 149.979 280.413 149.979C277.837 149.979 275.634 150.801 273.805 152.443C272.013 154.086 270.986 156.363 270.725 159.275H290.101Z" fill="#111111"/>
<path d="M80.0155 222.915C80.0155 219.107 80.8742 215.691 82.5915 212.667C84.3088 209.606 86.6422 207.217 89.5915 205.499C92.5782 203.782 95.8822 202.923 99.5035 202.923C103.76 202.923 107.474 203.95 110.648 206.003C113.821 208.057 116.136 210.969 117.592 214.739H111.488C110.405 212.387 108.837 210.577 106.784 209.307C104.768 208.038 102.341 207.403 99.5035 207.403C96.7782 207.403 94.3328 208.038 92.1675 209.307C90.0022 210.577 88.3035 212.387 87.0715 214.739C85.8395 217.054 85.2235 219.779 85.2235 222.915C85.2235 226.014 85.8395 228.739 87.0715 231.091C88.3035 233.406 90.0022 235.198 92.1675 236.467C94.3328 237.737 96.7782 238.371 99.5035 238.371C102.341 238.371 104.768 237.755 106.784 236.523C108.837 235.254 110.405 233.443 111.488 231.091H117.592C116.136 234.825 113.821 237.718 110.648 239.771C107.474 241.787 103.76 242.795 99.5035 242.795C95.8822 242.795 92.5782 241.955 89.5915 240.275C86.6422 238.558 84.3088 236.187 82.5915 233.163C80.8742 230.139 80.0155 226.723 80.0155 222.915Z" fill="#111111"/>
<path d="M123.273 227.003C123.273 223.867 123.908 221.123 125.177 218.771C126.447 216.382 128.183 214.534 130.385 213.227C132.625 211.921 135.108 211.267 137.833 211.267C140.521 211.267 142.855 211.846 144.833 213.003C146.812 214.161 148.287 215.617 149.257 217.371V211.771H154.409V242.459H149.257V236.747C148.249 238.539 146.737 240.033 144.721 241.227C142.743 242.385 140.428 242.963 137.777 242.963C135.052 242.963 132.588 242.291 130.385 240.947C128.183 239.603 126.447 237.718 125.177 235.291C123.908 232.865 123.273 230.102 123.273 227.003ZM149.257 227.059C149.257 224.745 148.791 222.729 147.857 221.011C146.924 219.294 145.655 217.987 144.049 217.091C142.481 216.158 140.745 215.691 138.841 215.691C136.937 215.691 135.201 216.139 133.633 217.035C132.065 217.931 130.815 219.238 129.881 220.955C128.948 222.673 128.481 224.689 128.481 227.003C128.481 229.355 128.948 231.409 129.881 233.163C130.815 234.881 132.065 236.206 133.633 237.139C135.201 238.035 136.937 238.483 138.841 238.483C140.745 238.483 142.481 238.035 144.049 237.139C145.655 236.206 146.924 234.881 147.857 233.163C148.791 231.409 149.257 229.374 149.257 227.059Z" fill="#111111"/>
<path d="M169.237 215.971V234.059C169.237 235.553 169.554 236.617 170.189 237.251C170.824 237.849 171.925 238.147 173.493 238.147H177.245V242.459H172.653C169.816 242.459 167.688 241.806 166.269 240.499C164.85 239.193 164.141 237.046 164.141 234.059V215.971H160.165V211.771H164.141V204.043H169.237V211.771H177.245V215.971H169.237Z" fill="#111111"/>
<path d="M211.42 225.939C211.42 226.91 211.364 227.937 211.252 229.019H186.724C186.91 232.043 187.937 234.414 189.804 236.131C191.708 237.811 194.004 238.651 196.692 238.651C198.894 238.651 200.724 238.147 202.18 237.139C203.673 236.094 204.718 234.713 205.316 232.995H210.804C209.982 235.945 208.34 238.353 205.876 240.219C203.412 242.049 200.35 242.963 196.692 242.963C193.78 242.963 191.166 242.31 188.852 241.003C186.574 239.697 184.782 237.849 183.476 235.459C182.169 233.033 181.516 230.233 181.516 227.059C181.516 223.886 182.15 221.105 183.42 218.715C184.689 216.326 186.462 214.497 188.74 213.227C191.054 211.921 193.705 211.267 196.692 211.267C199.604 211.267 202.18 211.902 204.42 213.171C206.66 214.441 208.377 216.195 209.572 218.435C210.804 220.638 211.42 223.139 211.42 225.939ZM206.156 224.875C206.156 222.934 205.726 221.273 204.868 219.891C204.009 218.473 202.833 217.409 201.34 216.699C199.884 215.953 198.26 215.579 196.468 215.579C193.892 215.579 191.689 216.401 189.86 218.043C188.068 219.686 187.041 221.963 186.78 224.875H206.156Z" fill="#111111"/>
<path d="M223.242 216.755C224.138 215.001 225.407 213.638 227.05 212.667C228.73 211.697 230.765 211.211 233.154 211.211V216.475H231.81C226.098 216.475 223.242 219.574 223.242 225.771V242.459H218.146V211.771H223.242V216.755Z" fill="#111111"/>
<path d="M241.669 206.787C240.698 206.787 239.877 206.451 239.205 205.779C238.533 205.107 238.197 204.286 238.197 203.315C238.197 202.345 238.533 201.523 239.205 200.851C239.877 200.179 240.698 199.843 241.669 199.843C242.602 199.843 243.386 200.179 244.021 200.851C244.693 201.523 245.029 202.345 245.029 203.315C245.029 204.286 244.693 205.107 244.021 205.779C243.386 206.451 242.602 206.787 241.669 206.787ZM244.133 211.771V242.459H239.037V211.771H244.133Z" fill="#111111"/>
<path d="M267.77 211.211C271.503 211.211 274.527 212.35 276.842 214.627C279.157 216.867 280.314 220.115 280.314 224.371V242.459H275.274V225.099C275.274 222.038 274.509 219.705 272.978 218.099C271.447 216.457 269.357 215.635 266.706 215.635C264.018 215.635 261.871 216.475 260.266 218.155C258.698 219.835 257.914 222.281 257.914 225.491V242.459H252.818V211.771H257.914V216.139C258.922 214.571 260.285 213.358 262.002 212.499C263.757 211.641 265.679 211.211 267.77 211.211Z" fill="#111111"/>
<path d="M301.294 211.267C303.945 211.267 306.26 211.846 308.238 213.003C310.254 214.161 311.748 215.617 312.718 217.371V211.771H317.87V243.131C317.87 245.931 317.273 248.414 316.078 250.579C314.884 252.782 313.166 254.499 310.926 255.731C308.724 256.963 306.148 257.579 303.198 257.579C299.166 257.579 295.806 256.627 293.118 254.723C290.43 252.819 288.844 250.225 288.358 246.939H293.398C293.958 248.806 295.116 250.299 296.87 251.419C298.625 252.577 300.734 253.155 303.198 253.155C305.998 253.155 308.276 252.278 310.03 250.523C311.822 248.769 312.718 246.305 312.718 243.131V236.691C311.71 238.483 310.217 239.977 308.238 241.171C306.26 242.366 303.945 242.963 301.294 242.963C298.569 242.963 296.086 242.291 293.846 240.947C291.644 239.603 289.908 237.718 288.638 235.291C287.369 232.865 286.734 230.102 286.734 227.003C286.734 223.867 287.369 221.123 288.638 218.771C289.908 216.382 291.644 214.534 293.846 213.227C296.086 211.921 298.569 211.267 301.294 211.267ZM312.718 227.059C312.718 224.745 312.252 222.729 311.318 221.011C310.385 219.294 309.116 217.987 307.51 217.091C305.942 216.158 304.206 215.691 302.302 215.691C300.398 215.691 298.662 216.139 297.094 217.035C295.526 217.931 294.276 219.238 293.342 220.955C292.409 222.673 291.942 224.689 291.942 227.003C291.942 229.355 292.409 231.409 293.342 233.163C294.276 234.881 295.526 236.206 297.094 237.139C298.662 238.035 300.398 238.483 302.302 238.483C304.206 238.483 305.942 238.035 307.51 237.139C309.116 236.206 310.385 234.881 311.318 233.163C312.252 231.409 312.718 229.374 312.718 227.059Z" fill="#111111"/>
</svg>
